HIERARCHY
ROOT hip
{
  OFFSET 0 0 0
  CHANNELS 6 Xposition Yposition Zposition Zrotation Yrotation Xrotation
  JOINT abdomen
  {
    OFFSET 0 20.6881 -0.73152
    CHANNELS 3 Zrotation Xrotation Yrotation
    JOINT chest
    {
      OFFSET 0 11.7043 -0.48768
      CHANNELS 3 Zrotation Xrotation Yrotation
      JOINT neck
      {
        OFFSET 0 22.1894 -2.19456
        CHANNELS 3 Zrotation Xrotation Yrotation
        JOINT head
        {
          OFFSET -0.24384 7.07133 1.2192
          CHANNELS 3 Zrotation Xrotation Yrotation
          JOINT leftEye
          {
            OFFSET 4.14528 8.04674 8.04672
            CHANNELS 3 Zrotation Xrotation Yrotation
            End Site
            {
              OFFSET 1 0 0
            }
          }
          JOINT rightEye
          {
            OFFSET -3.6576 8.04674 8.04672
            CHANNELS 3 Zrotation Xrotation Yrotation
            End Site
            {
              OFFSET 1 0 0
            }
          }
        }
      }
      JOINT rCollar
      {
        OFFSET -2.68224 19.2634 -4.8768
        CHANNELS 3 Zrotation Xrotation Yrotation
        JOINT rShldr
        {
          OFFSET -8.77824 -1.95073 1.46304
          CHANNELS 3 Zrotation Xrotation Yrotation
          JOINT rForeArm
          {
            OFFSET -28.1742 -1.7115 0.48768
            CHANNELS 3 Zrotation Xrotation Yrotation
            JOINT rHand
            {
              OFFSET -22.5879 0.773209 7.07136
              CHANNELS 3 Zrotation Xrotation Yrotation
              JOINT rThumb1
              {
                OFFSET -1.2192 -0.487915 3.41376
                CHANNELS 3 Zrotation Xrotation Yrotation
                JOINT rThumb2
                {
                  OFFSET -3.37035 -0.52449 3.41376
                  CHANNELS 3 Zrotation Xrotation Yrotation
                  End Site
                  {
                    OFFSET -1.78271 -1.18214 1.43049
                  }
                }
              }
              JOINT rIndex1
              {
                OFFSET -7.75947 0.938293 5.60832
                CHANNELS 3 Zrotation Xrotation Yrotation
                JOINT rIndex2
                {
                  OFFSET -2.54057 -0.884171 1.56538
                  CHANNELS 3 Zrotation Xrotation Yrotation
                  End Site
                  {
                    OFFSET -1.62519 -0.234802 1.16502
                  }
                }
              }
              JOINT rMid1
              {
                OFFSET -8.24714 1.18213 3.41376
                CHANNELS 3 Zrotation Xrotation Yrotation
                JOINT rMid2
                {
                  OFFSET -3.10165 -0.590103 1.0647
                  CHANNELS 3 Zrotation Xrotation Yrotation
                  End Site
                  {
                    OFFSET -2.48547 -0.328903 0.83742
                  }
                }
              }
              JOINT rRing1
              {
                OFFSET -8.82822 0.546677 1.51678
                CHANNELS 3 Zrotation Xrotation Yrotation
                JOINT rRing2
                {
                  OFFSET -2.60934 -0.819778 -0.0198488
                  CHANNELS 3 Zrotation Xrotation Yrotation
                  End Site
                  {
                    OFFSET -2.33842 -0.294052 0.168128
                  }
                }
              }
              JOINT rPinky1
              {
                OFFSET -8.27202 -0.0477905 -0.4584
                CHANNELS 3 Zrotation Xrotation Yrotation
                JOINT rPinky2
                {
                  OFFSET -1.82734 -0.647385 -0.700984
                  CHANNELS 3 Zrotation Xrotation Yrotation
                  End Site
                  {
                    OFFSET -1.69225 -0.51767 -0.607171
                  }
                }
              }
            }
          }
        }
      }
      JOINT lCollar
      {
        OFFSET 2.68224 19.2634 -4.8768
        CHANNELS 3 Zrotation Xrotation Yrotation
        JOINT lShldr
        {
          OFFSET 8.77824 -1.95073 1.46304
          CHANNELS 3 Zrotation Xrotation Yrotation
          JOINT lForeArm
          {
            OFFSET 28.1742 -1.7115 0.48768
            CHANNELS 3 Zrotation Xrotation Yrotation
            JOINT lHand
            {
              OFFSET 22.5879 0.773209 7.07136
              CHANNELS 3 Zrotation Xrotation Yrotation
              JOINT lThumb1
              {
                OFFSET 1.2192 -0.487915 3.41376
                CHANNELS 3 Zrotation Xrotation Yrotation
                JOINT lThumb2
                {
                  OFFSET 3.37035 -0.52449 3.41376
                  CHANNELS 3 Zrotation Xrotation Yrotation
                  End Site
                  {
                    OFFSET 1.78271 -1.18214 1.43049
                  }
                }
              }
              JOINT lIndex1
              {
                OFFSET 7.75947 0.938293 5.60832
                CHANNELS 3 Zrotation Xrotation Yrotation
                JOINT lIndex2
                {
                  OFFSET 2.54057 -0.884171 1.56538
                  CHANNELS 3 Zrotation Xrotation Yrotation
                  End Site
                  {
                    OFFSET 1.62519 -0.234802 1.16502
                  }
                }
              }
              JOINT lMid1
              {
                OFFSET 8.24714 1.18213 3.41376
                CHANNELS 3 Zrotation Xrotation Yrotation
                JOINT lMid2
                {
                  OFFSET 3.10165 -0.590103 1.0647
                  CHANNELS 3 Zrotation Xrotation Yrotation
                  End Site
                  {
                    OFFSET 2.48547 -0.328903 0.83742
                  }
                }
              }
              JOINT lRing1
              {
                OFFSET 8.82822 0.546677 1.51678
                CHANNELS 3 Zrotation Xrotation Yrotation
                JOINT lRing2
                {
                  OFFSET 2.60934 -0.819778 -0.0198488
                  CHANNELS 3 Zrotation Xrotation Yrotation
                  End Site
                  {
                    OFFSET 2.33842 -0.294052 0.168128
                  }
                }
              }
              JOINT lPinky1
              {
                OFFSET 8.27202 -0.0477905 -0.4584
                CHANNELS 3 Zrotation Xrotation Yrotation
                JOINT lPinky2
                {
                  OFFSET 1.82734 -0.647385 -0.700984
                  CHANNELS 3 Zrotation Xrotation Yrotation
                  End Site
                  {
                    OFFSET 1.69225 -0.51767 -0.607171
                  }
                }
              }
            }
          }
        }
      }
    }
  }
  JOINT rButtock
  {
    OFFSET -8.77824 4.35084 1.2192
    CHANNELS 3 Zrotation Xrotation Yrotation
    JOINT rThigh
    {
      OFFSET 0 -1.70687 -2.19456
      CHANNELS 3 Zrotation Xrotation Yrotation
      JOINT rShin
      {
        OFFSET 0 -36.8199 0.73152
        CHANNELS 3 Zrotation Xrotation Yrotation
        JOINT rFoot
        {
          OFFSET 0.73152 -45.1104 -5.12064
          CHANNELS 3 Zrotation Xrotation Yrotation
          End Site
          {
            OFFSET -1.1221 -3.69964 12.103
          }
        }
      }
    }
  }
  JOINT lButtock
  {
    OFFSET 8.77824 4.35084 1.2192
    CHANNELS 3 Zrotation Xrotation Yrotation
    JOINT lThigh
    {
      OFFSET 0 -1.70687 -2.19456
      CHANNELS 3 Zrotation Xrotation Yrotation
      JOINT lShin
      {
        OFFSET 0 -36.8199 0.73152
        CHANNELS 3 Zrotation Xrotation Yrotation
        JOINT lFoot
        {
          OFFSET -0.73152 -45.1104 -5.12064
          CHANNELS 3 Zrotation Xrotation Yrotation
          End Site
          {
            OFFSET 1.1221 -3.69964 12.103
          }
        }
      }
    }
  }
}
MOTION
Frames:	7
Frame Time:	0.03333
0.0 0.0 0.0 0.0 0.0 0.0 0.0 0.0 0.0 0.0 0.0 0.0 0.0 0.0 0.0 0.0 0.0 0.0 0.0 0.0 0.0 0.0 0.0 0.0 0.0 0.0 0.0 0.0 0.0 0.0 0.0 0.0 0.0 0.0 0.0 0.0 0.0 0.0 0.0 0.0 0.0 0.0 0.0 0.0 0.0 0.0 0.0 0.0 0.0 0.0 0.0 0.0 0.0 0.0 0.0 0.0 0.0 0.0 0.0 0.0 0.0 0.0 0.0 0.0 0.0 0.0 0.0 0.0 0.0 0.0 0.0 0.0 0.0 0.0 0.0 0.0 0.0 0.0 0.0 0.0 0.0 0.0 0.0 0.0 0.0 0.0 0.0 0.0 0.0 0.0 0.0 0.0 0.0 0.0 0.0 0.0 0.0 0.0 0.0 0.0 0.0 0.0 0.0 0.0 0.0 0.0 0.0 0.0 0.0 0.0 0.0 0.0 0.0 0.0 0.0 0.0 0.0 0.0 0.0 0.0 0.0 0.0 0.0 0.0 0.0 0.0 0.0 0.0 0.0 0.0 0.0 0.0
-0.5413 70.6041 0.3728 179.46782 -38.192555 -174.025716 -5.015292 6.452279 0.356853 2.372306 -6.444433 3.114145 -8.66859 11.877022 -17.73057 15.105074 -20.189129 7.122899 -0.003852 0.0 -0.001456 0.002499 0.0 0.002861 -0.049152 0.292319 0.065589 72.312414 13.440796 -3.724998 -1.513078 1.551007 35.943849 -5.64079 17.907921 0.292123 -164.493938 -2.166778 89.561403 -77.036356 2.317678 27.649691 -173.60247 -52.692618 119.891267 -3.317153 29.530491 -0.111442 -164.638771 -19.283735 144.732565 2.824098 1.012333 0.493264 -70.114714 -72.127175 -87.003601 -150.97832 0.122237 176.274561 -10.672115 -21.646224 -10.11504 -8.343929 -23.990329 -10.204587 143.620704 38.233561 -148.080963 -66.937367 -45.276098 -115.481203 -157.054157 28.864819 -133.415344 -163.61321 -15.638272 -147.974938 -4.653569 -4.63878 0.530617 -8.351553 -14.796268 10.152123 179.41866 -58.426842 -117.046544 130.399522 30.809578 -107.679643 20.138643 39.007191 -15.358472 163.336412 -5.39608 -143.363034 145.107208 3.758215 -179.690283 156.540622 63.695901 -172.329368 161.71327 70.564426 151.018419 10.635309 -24.045086 11.889572 -179.973419 75.74835 -0.018187 167.801612 48.116844 74.126364 48.378856 20.812832 75.814946 94.448545 34.495565 175.788872 -179.973625 75.750094 -0.018046 -165.782584 52.905243 -55.298407 -22.793198 30.973058 70.291224 175.832 -27.637143 9.051436
-0.7882999999999999 70.62089999999999 0.5498000000000001 179.684553 -37.986406 -174.095009 -4.980653 6.247577 -0.0 2.422836 -6.423932 3.597026 -7.947092 11.423188 -13.316787 12.650899 -20.798707 2.561387 -0.003387 0.0 -0.000993 -0.003567 0.0 -0.00374 0.133161 -0.807174 -0.178381 -98.593018 -29.062405 -174.028085 -160.814318 4.70181 -148.997972 -1.548125 5.104658 -0.08231 4.530533 -4.51423 -0.52177 -19.96757 18.811975 14.904614 -13.869817 18.815218 9.291469 -13.347221 27.104296 8.975228 -161.153115 -8.160629 143.465421 -176.813547 -42.231069 142.388488 -72.13444 72.973143 89.990499 -159.452337 -15.829035 178.301395 -17.350345 -30.440776 -16.589373 1.948469 -3.029503 -1.130625 33.835904 -85.665847 55.253168 177.216536 13.171435 118.339087 -137.234801 -0.673438 -147.342789 -177.207669 27.33251 -153.705733 121.364911 30.329628 -71.957697 136.084447 -13.269143 -70.91856 19.170928 24.114518 -13.380654 -0.077464 11.819677 -1.602867 -78.538071 -80.918618 -49.687815 -179.917071 -48.680844 -141.182936 -0.004371 1.856136 -0.584729 154.662506 9.970981 -170.514726 144.111431 8.78122 140.874977 -46.450129 79.969239 10.074895 0.007063 -0.000243 0.003532 -7.821176 -28.305943 -170.913535 -13.870133 -49.934991 -68.916362 -98.650163 -20.889582 -173.887921 179.998977 75.749203 0.0007 -167.119757 53.578305 -10.273915 10.621897 47.541744 134.82802 -2.606731 26.3054 -134.931323
-1.0239 70.6332 0.7194 179.918218 -37.817773 -174.169548 -4.935783 6.074009 -0.0 2.439311 -6.419637 3.681733 -13.716278 23.539129 -95.227846 34.36295 15.450106 78.980573 -0.003488 -0.0 0.000731 0.001547 -0.0 -0.004902 -155.80979 -5.555461 162.26656 -54.850961 -5.491546 8.942624 4.97571 -3.79549 -69.876049 167.963878 -23.619809 142.721705 -178.5194 -16.064218 89.475806 -138.647991 12.783873 71.629569 24.074019 -42.307001 -5.56015 8.421866 10.877143 -0.426466 -36.035657 51.723235 29.832237 -154.942173 17.565139 139.307085 -69.299279 72.945299 87.017962 -81.24384 83.119989 90.180473 -125.806719 -27.876497 -123.550669 64.018063 83.638259 -25.514314 6.250703 26.219404 -7.467005 -79.822714 2.60662 -30.710112 93.020829 44.857911 -77.74821 -23.177738 -36.277935 -18.036393 -11.109465 -11.092407 0.640208 74.844126 31.770088 -64.554766 140.763166 1.380144 -116.228354 63.522757 56.815311 -45.600843 160.098437 -4.901083 -142.969017 42.49325 58.273459 -36.600589 145.121814 1.975157 179.7494 76.258374 -77.987861 97.631112 112.782072 -40.023575 110.810573 8.504338 -23.647737 11.588091 2.3e-05 0.002115 -0.0 -6.786468 -27.062906 -86.838552 -46.927178 3.911848 -170.827983 24.278503 71.739453 -118.707015 -179.994911 75.75081 -0.003482 -167.61395 51.504007 -180.0 -22.654183 -40.334901 -119.924619 1.442664 -72.239591 -91.964603
-1.2472 70.64489999999999 0.8881999999999999 -179.85233 -37.678739 -174.252478 -7.257402 3.523817 90.639842 -4.070664 -4.777255 -87.205947 7.144015 21.282715 104.949121 -30.168465 15.800687 -114.014419 -0.000704 -0.0 0.002454 -0.000862 0.0 -0.000317 -0.048714 0.292289 0.066194 -101.213193 2.440633 -178.12483 175.95837 -9.397538 -145.646411 -11.033174 32.465445 2.084097 -171.602855 -9.286505 89.949732 -91.004212 10.67471 35.021745 1.337595 -2.205603 -0.738557 -177.599626 -34.422244 106.368418 -0.058247 0.167735 0.032532 177.721116 -53.109337 140.031766 -31.708697 -66.108999 -46.283245 -150.755839 -25.040552 178.390434 -124.851824 -29.038667 -122.621543 16.64257 41.518981 6.327011 155.529552 -3.681418 -161.874255 140.858117 85.469089 -81.831958 123.920483 87.54062 -155.720183 8.680974 48.717737 -5.509312 166.631788 -4.304611 -89.771828 158.574519 -1.683843 -81.241462 -140.605889 -74.265481 -86.388701 54.995135 54.590368 -44.574848 0.056924 0.167946 -0.032627 4.953756 21.320834 -4.407649 145.119427 0.267875 179.212257 73.705911 -78.005169 95.20697 80.937951 -51.227701 79.360184 154.670625 39.453419 147.500466 8e-06 -0.000541 -1.1e-05 -8.100961 -25.908053 -0.0 -14.577445 45.252995 -79.288012 119.171648 53.71377 -24.46243 0.0 0.000326 -0.001613 6.917257 -22.749328 122.665936 30.426949 -23.510675 -106.821013 28.551405 -8.445559 -7.965455
-1.459 70.658 1.0507 -179.635079 -37.556291 -174.34011 -4.794135 5.810645 0.0 2.453027 -6.420897 3.778235 -13.650039 23.316022 -94.579969 34.002718 15.048908 78.932384 0.002513 0.0 0.001418 0.002513 0.0 0.001418 3.268958 -26.755845 -5.241332 55.889923 -14.210359 -29.413311 -8.257489 49.69739 46.152 -5.039809 16.02053 0.169795 -85.829679 38.630922 47.95522 -112.642454 -12.534684 74.478715 -27.421481 30.639295 20.098676 -154.736074 1.830336 109.900265 -157.052106 3.993135 141.297247 2.975303 0.835253 0.469459 -69.297917 72.947604 87.016298 -76.714863 83.139801 85.611864 -162.372864 72.064166 -150.893659 -114.950098 -41.702613 -112.506323 -4.239128 -44.742778 8.647699 82.503597 -27.218401 136.954594 179.566792 3.566337 152.444127 11.35533 54.241783 -6.771509 176.59785 -14.213392 -89.690378 -109.885705 -66.477984 -83.129647 -10.281773 -18.182646 4.58501 164.487013 -20.969465 -110.17255 160.674367 -6.668076 -143.243571 163.025689 -3.986243 -142.878874 72.351537 72.972734 -90.219194 95.314911 82.849194 -104.365795 -12.252826 41.424864 -10.280324 9.488545 -23.75735 10.322411 -0.0 -0.001437 -0.001208 -9.405885 -26.986029 90.741042 52.725852 2.082893 98.972728 104.996561 -7.372424 -174.984805 -0.000418 -0.000779 0.000537 7.826106 -23.147287 180.0 4.191999 -48.557255 38.894372 -122.602042 34.7756 -169.617305
-1.6576 70.6726 1.2058 -179.415033 -37.452695 -174.42714 -6.67638 4.687412 55.079993 -1.915568 -6.704092 -51.453763 -13.906951 21.792855 -85.961659 33.976369 10.509834 71.783863 0.001908 0.0 0.001016 -0.00392 0.0 -0.001143 -5.6e-05 7.9e-05 -0.000771 73.493618 45.610543 -1.449581 7.551206 -33.751124 40.704347 -9.002132 27.263099 1.235934 -158.450029 3.763517 88.550479 -1.787717 -45.88175 14.712744 37.21627 -57.917638 -0.641986 -151.028281 -5.414288 113.383751 -0.058209 0.167787 0.032035 175.172353 -56.709166 138.433229 -145.100459 -1.521978 -178.649729 7.083443 -26.320793 -13.146472 -158.217817 60.369498 -150.797141 -94.805491 -50.481493 -93.153091 -0.162903 -0.990102 0.218174 -15.995499 81.577796 -66.494009 26.531276 -40.074898 -2.081735 -1.79695 18.024261 -4.628619 -0.567671 -0.56152 0.084618 123.395998 -14.76839 -110.799948 1.162074 1.860888 -0.668682 -10.556433 1.227525 0.357338 36.037014 51.722781 -29.832657 2.887756 16.915558 -3.284063 145.118905 0.185745 179.185885 -11.912076 29.602168 5.641235 -8.477127 26.83448 -7.452317 -0.914406 -2.865156 1.027174 0.000106 0.000124 0.000159 -8.148756 -28.016625 -180.0 11.932486 -51.881131 51.098661 -174.392214 32.536631 -114.534599 -179.952715 75.750611 -0.038906 -166.609542 53.817809 -49.92419 -18.869171 32.578958 73.753297 59.398992 -32.173769 -23.151507
